<?xml version="1.0" encoding="iso-8859-1"?>
<!DOCTYPE svg PUBLIC "-//W3C//DTD SVG 1.1//EN" "http://www.w3.org/Graphics/SVG/1.1/DTD/svg11.dtd">
<svg version="1.1" xmlns="http://www.w3.org/2000/svg" xmlns:xlink="http://www.w3.org/1999/xlink" preserveAspectRatio="xMidYMid meet" viewBox="0 0 640 640" width="640" height="640"><defs><path d="M91.01 0C81.77 0 74.29 7.49 74.29 22.01C74.29 82.67 74.29 567.92 74.29 628.57C74.29 632.51 81.77 640 91.01 640C136.8 640 503.2 640 548.99 640C558.23 640 565.71 632.51 565.71 628.57C565.71 580.55 565.71 196.35 565.71 148.32C565.71 140.37 564.65 137.81 562.78 135.92C549.48 122.62 443.09 16.24 429.79 2.94C427.91 1.06 425.35 0 422.69 0C356.35 0 124.17 0 91.01 0Z" id="fjjslAgya"></path><path d="M91.01 640C81.77 640 74.29 632.51 74.29 623.28C74.29 611.44 74.29 552.25 74.29 445.71L565.71 445.71C565.71 552.25 565.71 611.44 565.71 623.28C565.71 632.51 558.23 640 548.99 640C457.4 640 136.8 640 91.01 640Z" id="a9GjrHwZnB"></path><path d="M275.06 490.56L275.06 605.71L256 605.71L256 526.49L230.22 590.55L213.66 590.55L187.71 526.49L187.71 605.71L168.65 605.71L168.65 490.56L187.71 490.56L221.93 569.31L256 490.56L275.06 490.56Z" id="l1t28qPaC4"></path><path d="M378.9 573.21C376.46 580.61 373.06 586.75 368.74 591.65C364.42 596.55 359.37 600.24 353.59 602.74C347.81 605.25 341.47 606.49 334.61 606.49C327.74 606.49 321.41 605.25 315.62 602.74C309.84 600.24 304.79 596.55 300.47 591.65C296.15 586.74 292.75 580.61 290.31 573.21C287.86 565.82 286.64 557.27 286.64 547.59C286.64 537.91 287.86 529.38 290.31 522.05C292.75 514.7 296.14 508.58 300.47 503.69C304.79 498.79 309.84 495.07 315.62 492.51C321.41 489.95 327.74 488.69 334.61 488.69C341.47 488.69 347.81 489.95 353.59 492.51C359.37 495.07 364.42 498.79 368.74 503.69C373.06 508.59 376.45 514.71 378.9 522.05C381.34 529.38 382.57 537.9 382.57 547.59C382.57 557.28 381.35 565.82 378.9 573.21ZM345.14 588.93C348.63 587.42 351.76 584.94 354.51 581.51C357.27 578.07 359.44 573.57 360.99 567.99C362.55 562.41 363.38 555.62 363.5 547.6C363.39 539.78 362.58 533.14 361.07 527.68C359.57 522.21 357.49 517.7 354.82 514.16C352.16 510.62 349.14 508.07 345.76 506.5C342.38 504.94 338.81 504.16 335.05 504.16C331.2 504.16 327.52 504.88 324.03 506.34C320.54 507.81 317.42 510.27 314.66 513.76C311.9 517.26 309.74 521.75 308.18 527.28C306.63 532.81 305.78 539.57 305.68 547.59C305.78 555.41 306.59 562.07 308.1 567.59C309.61 573.11 311.69 577.61 314.35 581.11C317.02 584.61 320.03 587.14 323.42 588.77C326.81 590.38 330.38 591.19 334.13 591.19C337.98 591.19 341.65 590.43 345.14 588.93Z" id="c3q8Vc3341"></path><path d="M390.11 490.56L411.51 490.56L438.23 589.93L466.52 490.56L487.77 490.56L450.27 606.34L425.89 606.34L390.11 490.56Z" id="bACT0e419"></path><path d="M274.5 318.59C270.85 316.58 268.57 312.74 268.57 308.57C268.57 292.57 268.57 164.57 268.57 148.57C268.57 144.4 270.85 140.56 274.5 138.55C278.17 136.55 282.62 136.7 286.15 138.93C298.72 146.93 399.29 210.93 411.86 218.93C415.14 221.03 417.14 224.66 417.14 228.57C417.14 232.48 415.14 236.11 411.85 238.22C399.28 246.22 298.71 310.22 286.14 318.22C284.27 319.39 282.14 320 280 320C278.1 320 276.22 319.53 274.5 318.59ZM291.43 287.75L384.42 228.57L291.43 169.38L291.43 287.75Z" id="b2FLe9BhPm"></path><path d="M154.29 228.57C154.29 134.05 231.19 57.14 325.71 57.14C420.24 57.14 497.14 134.05 497.14 228.57C497.14 323.1 420.24 400 325.71 400C231.19 400 154.29 323.1 154.29 228.57ZM177.14 228.57C177.14 310.49 243.79 377.14 325.71 377.14C407.63 377.14 474.29 310.49 474.29 228.57C474.29 146.65 407.63 80 325.71 80C243.79 80 177.14 146.65 177.14 228.57Z" id="d2hDXbqAES"></path><path d="M428.57 137.14L563.99 137.14L428.57 1.73L428.57 137.14Z" id="c29hy0qkhS"></path><path d="M91.01 0C81.77 0 74.29 7.49 74.29 22.01C74.29 82.67 74.29 567.92 74.29 628.57C74.29 632.51 81.77 640 91.01 640C136.8 640 503.2 640 548.99 640C558.23 640 565.71 632.51 565.71 628.57C565.71 580.55 565.71 196.35 565.71 148.32C565.71 140.37 564.65 137.81 562.78 135.92C549.48 122.62 443.09 16.24 429.79 2.94C427.91 1.06 425.35 0 422.69 0C356.35 0 124.17 0 91.01 0Z" id="alPn58nvh"></path><path d="M428.57 137.14L563.99 137.14L428.57 1.73L428.57 137.14Z" id="bkNYevar0"></path><path d="M216.35 112.71C187.52 112.71 164.14 136.09 164.14 164.93C164.14 193.76 187.52 217.14 216.35 217.14C245.19 217.14 268.57 193.76 268.57 164.93C268.57 136.09 245.19 112.71 216.35 112.71Z" id="a6dFvKfbw"></path><path d="M200 445.71L565.71 445.71L565.71 320L451.43 211.43L331.43 342.86L268.77 280.19L74.29 445.71L200 445.71Z" id="b2cCvdeLzj"></path><path d="M91.01 640C81.77 640 74.29 632.51 74.29 623.28C74.29 611.44 74.29 552.25 74.29 445.71L565.71 445.71C565.71 552.25 565.71 611.44 565.71 623.28C565.71 632.51 558.23 640 548.99 640C457.4 640 136.8 640 91.01 640Z" id="exZ7gUGlj"></path><path d="M262.43 590.08C260.03 593.11 257.35 595.57 254.38 597.5C251.41 599.43 248.29 601.02 245.01 602.26C241.73 603.51 238.35 604.4 234.85 604.91C231.35 605.46 227.9 605.71 224.46 605.71C217.58 605.71 211.26 604.47 205.48 601.97C199.7 599.46 194.65 595.77 190.33 590.87C186.01 585.97 182.61 579.83 180.17 572.43C177.72 565.04 176.5 556.49 176.5 546.81C176.5 537.13 177.72 528.61 180.17 521.27C182.61 513.92 185.99 507.81 190.33 502.91C194.65 498.01 199.72 494.3 205.56 491.74C211.39 489.18 217.7 487.91 224.46 487.91C230.71 487.91 236.54 488.95 241.96 491.03C247.38 493.12 252.21 496.24 256.49 500.4C255.19 501.56 244.81 510.81 243.51 511.97C241.01 508.94 238.14 506.75 234.92 505.41C231.69 504.06 228.36 503.37 224.92 503.37C221.07 503.37 217.39 504.09 213.9 505.55C210.41 507.02 207.29 509.49 204.53 512.97C201.77 516.47 199.61 520.96 198.05 526.49C196.5 532.02 195.65 538.78 195.55 546.8C195.65 554.62 196.46 561.38 197.97 567.11C199.48 572.83 201.56 577.52 204.22 581.17C206.89 584.81 209.9 587.52 213.29 589.29C216.67 591.06 220.23 591.94 223.99 591.94C225.14 591.94 226.67 591.86 228.6 591.7C230.52 591.54 232.45 591.29 234.38 590.93C236.3 590.56 238.15 590.07 239.93 589.44C241.7 588.81 243 587.93 243.83 586.79C243.83 584.89 243.83 575.41 243.83 558.35L224.3 558.35L224.3 545.54L262.43 545.54C262.43 572.27 262.43 587.11 262.43 590.08Z" id="cgzJRo0gB"></path><path d="M315.46 605.71L315.46 490.56L334.53 490.56L334.53 605.71L315.46 605.71Z" id="a6hzBiJdC"></path><path d="M414.47 541.03L462.59 541.03L462.59 553.84L414.47 553.84L414.47 605.71L395.41 605.71L395.41 490.56L467.43 490.56L467.43 504.78L414.47 504.78L414.47 541.03Z" id="b2P2kYiK3M"></path></defs><g><g><g><use xlink:href="#fjjslAgya" opacity="1" fill="#e9e9e0" fill-opacity="1"></use><g><use xlink:href="#fjjslAgya" opacity="1" fill-opacity="0" stroke="#000000" stroke-width="1" stroke-opacity="0"></use></g></g><g><use xlink:href="#a9GjrHwZnB" opacity="1" fill="#ff5364" fill-opacity="1"></use><g><use xlink:href="#a9GjrHwZnB" opacity="1" fill-opacity="0" stroke="#000000" stroke-width="1" stroke-opacity="0"></use></g></g><g><use xlink:href="#l1t28qPaC4" opacity="1" fill="#ffffff" fill-opacity="1"></use><g><use xlink:href="#l1t28qPaC4" opacity="1" fill-opacity="0" stroke="#000000" stroke-width="1" stroke-opacity="0"></use></g></g><g><use xlink:href="#c3q8Vc3341" opacity="1" fill="#ffffff" fill-opacity="1"></use><g><use xlink:href="#c3q8Vc3341" opacity="1" fill-opacity="0" stroke="#000000" stroke-width="1" stroke-opacity="0"></use></g></g><g><use xlink:href="#bACT0e419" opacity="1" fill="#ffffff" fill-opacity="1"></use><g><use xlink:href="#bACT0e419" opacity="1" fill-opacity="0" stroke="#000000" stroke-width="1" stroke-opacity="0"></use></g></g><g><use xlink:href="#b2FLe9BhPm" opacity="1" fill="#c8bdb8" fill-opacity="1"></use><g><use xlink:href="#b2FLe9BhPm" opacity="1" fill-opacity="0" stroke="#000000" stroke-width="1" stroke-opacity="0"></use></g></g><g><use xlink:href="#d2hDXbqAES" opacity="1" fill="#c8bdb8" fill-opacity="1"></use><g><use xlink:href="#d2hDXbqAES" opacity="1" fill-opacity="0" stroke="#000000" stroke-width="1" stroke-opacity="0"></use></g></g><g><use xlink:href="#c29hy0qkhS" opacity="1" fill="#d9d7ca" fill-opacity="1"></use><g><use xlink:href="#c29hy0qkhS" opacity="1" fill-opacity="0" stroke="#000000" stroke-width="1" stroke-opacity="0"></use></g></g><g><use xlink:href="#alPn58nvh" opacity="1" fill="#e9e9e0" fill-opacity="1"></use><g><use xlink:href="#alPn58nvh" opacity="1" fill-opacity="0" stroke="#000000" stroke-width="1" stroke-opacity="0"></use></g></g><g><use xlink:href="#bkNYevar0" opacity="1" fill="#d9d7ca" fill-opacity="1"></use><g><use xlink:href="#bkNYevar0" opacity="1" fill-opacity="0" stroke="#000000" stroke-width="1" stroke-opacity="0"></use></g></g><g><use xlink:href="#a6dFvKfbw" opacity="1" fill="#f3d55b" fill-opacity="1"></use><g><use xlink:href="#a6dFvKfbw" opacity="1" fill-opacity="0" stroke="#000000" stroke-width="1" stroke-opacity="0"></use></g></g><g><use xlink:href="#b2cCvdeLzj" opacity="1" fill="#26b99a" fill-opacity="1"></use><g><use xlink:href="#b2cCvdeLzj" opacity="1" fill-opacity="0" stroke="#000000" stroke-width="1" stroke-opacity="0"></use></g></g><g><use xlink:href="#exZ7gUGlj" opacity="1" fill="#14a085" fill-opacity="1"></use><g><use xlink:href="#exZ7gUGlj" opacity="1" fill-opacity="0" stroke="#000000" stroke-width="1" stroke-opacity="0"></use></g></g><g><use xlink:href="#cgzJRo0gB" opacity="1" fill="#ffffff" fill-opacity="1"></use><g><use xlink:href="#cgzJRo0gB" opacity="1" fill-opacity="0" stroke="#000000" stroke-width="1" stroke-opacity="0"></use></g></g><g><use xlink:href="#a6hzBiJdC" opacity="1" fill="#ffffff" fill-opacity="1"></use><g><use xlink:href="#a6hzBiJdC" opacity="1" fill-opacity="0" stroke="#000000" stroke-width="1" stroke-opacity="0"></use></g></g><g><use xlink:href="#b2P2kYiK3M" opacity="1" fill="#ffffff" fill-opacity="1"></use><g><use xlink:href="#b2P2kYiK3M" opacity="1" fill-opacity="0" stroke="#000000" stroke-width="1" stroke-opacity="0"></use></g></g></g></g></svg>