<?xml version="1.0" encoding="iso-8859-1"?>
<!DOCTYPE svg PUBLIC "-//W3C//DTD SVG 1.1//EN" "http://www.w3.org/Graphics/SVG/1.1/DTD/svg11.dtd">
<svg version="1.1" xmlns="http://www.w3.org/2000/svg" xmlns:xlink="http://www.w3.org/1999/xlink" preserveAspectRatio="xMidYMid meet" viewBox="0 0 640 640" width="640" height="640"><defs><path d="M91.01 0C81.77 0 74.29 7.49 74.29 22.01C74.29 82.67 74.29 567.92 74.29 628.57C74.29 632.51 81.77 640 91.01 640C136.8 640 503.2 640 548.99 640C558.23 640 565.71 632.51 565.71 628.57C565.71 580.55 565.71 196.35 565.71 148.32C565.71 140.37 564.65 137.81 562.78 135.92C549.48 122.62 443.09 16.24 429.79 2.94C427.91 1.06 425.35 0 422.69 0C356.35 0 124.17 0 91.01 0Z" id="c1N5NQn7YW"></path><path d="M428.57 137.14L563.99 137.14L428.57 1.73L428.57 137.14Z" id="a2xhmpZJrn"></path><path d="M216.35 112.71C187.52 112.71 164.14 136.09 164.14 164.93C164.14 193.76 187.52 217.14 216.35 217.14C245.19 217.14 268.57 193.76 268.57 164.93C268.57 136.09 245.19 112.71 216.35 112.71Z" id="b2jpztvkLM"></path><path d="M200 445.71L565.71 445.71L565.71 320L451.43 211.43L331.43 342.86L268.77 280.19L74.29 445.71L200 445.71Z" id="dPyGRjUyb"></path><path d="M91.01 640C81.77 640 74.29 632.51 74.29 623.28C74.29 611.44 74.29 552.25 74.29 445.71L565.71 445.71C565.71 552.25 565.71 611.44 565.71 623.28C565.71 632.51 558.23 640 548.99 640C457.4 640 136.8 640 91.01 640Z" id="c6h41vbteh"></path><path d="M207.87 577.12C207.87 582.54 206.87 587.1 204.9 590.79C202.92 594.48 200.26 597.45 196.93 599.69C193.59 601.93 189.77 603.5 185.45 604.38C181.11 605.27 176.67 605.71 172.09 605.71C169.79 605.71 167.1 605.47 164.04 605.01C160.97 604.54 157.79 603.82 154.51 602.82C151.23 601.83 148.07 600.71 145.06 599.46C142.03 598.22 139.48 596.81 137.4 595.25C138.2 593.98 144.57 583.86 145.37 582.59C146.41 583.31 147.89 584.08 149.82 584.86C151.74 585.63 153.86 586.37 156.15 587.04C158.44 587.73 160.84 588.31 163.34 588.83C165.85 589.36 168.19 589.61 170.37 589.61C175.89 589.61 180.29 588.54 183.57 586.41C186.85 584.29 188.59 580.65 188.81 575.55C188.81 569.68 188.81 540.3 188.81 487.43L207.87 487.43C207.87 541.24 207.87 571.14 207.87 577.12Z" id="cFIg47H5X"></path><path d="M227.37 605.71L227.37 490.55C247.24 490.55 258.28 490.55 260.49 490.55C265.38 490.55 270.23 491.33 275.01 492.89C279.8 494.46 284.1 496.8 287.91 499.92C291.71 503.04 294.79 506.82 297.13 511.25C299.47 515.67 300.65 520.64 300.65 526.17C300.65 532.01 299.65 537.29 297.68 542.03C295.7 546.78 292.93 550.77 289.39 553.99C285.85 557.21 281.57 559.71 276.58 561.49C271.59 563.26 266.05 564.14 260.02 564.14C259.09 564.14 254.46 564.14 246.11 564.14L246.11 605.71L227.37 605.71ZM246.12 550.4C256.44 550.4 262.17 550.4 263.31 550.4C265.6 550.4 267.86 550.01 270.11 549.22C272.35 548.45 274.41 547.17 276.28 545.39C278.16 543.62 279.67 541.15 280.81 537.98C281.95 534.8 282.52 530.87 282.52 526.18C282.52 524.31 282.26 522.14 281.75 519.7C281.22 517.26 280.16 514.91 278.55 512.67C276.92 510.43 274.66 508.56 271.75 507.05C268.82 505.53 264.97 504.78 260.18 504.78C259.24 504.78 254.56 504.78 246.12 504.78L246.12 550.4Z" id="e5hH9THKq"></path><path d="M339.06 541.03L387.19 541.03L387.19 553.84L339.06 553.84L339.06 591.5L392.03 591.5L392.03 605.71L320 605.71L320 490.56L392.03 490.56L392.03 504.78L339.06 504.78L339.06 541.03Z" id="bemuZYj1x"></path><path d="M492.52 590.08C490.12 593.11 487.45 595.57 484.48 597.5C481.5 599.43 478.38 601.02 475.1 602.26C471.82 603.51 468.44 604.4 464.94 604.91C461.45 605.46 458 605.71 454.56 605.71C447.68 605.71 441.36 604.47 435.57 601.97C429.79 599.46 424.74 595.77 420.42 590.87C416.1 585.97 412.7 579.83 410.26 572.43C407.81 565.04 406.59 556.49 406.59 546.81C406.59 537.13 407.81 528.61 410.26 521.27C412.7 513.92 416.09 507.81 420.42 502.91C424.74 498.01 429.81 494.3 435.65 491.74C441.48 489.18 447.79 487.91 454.56 487.91C460.81 487.91 466.64 488.95 472.05 491.03C477.47 493.12 482.3 496.24 486.58 500.4C485.28 501.56 474.9 510.81 473.61 511.97C471.1 508.94 468.24 506.75 465.01 505.41C461.78 504.06 458.45 503.37 455.01 503.37C451.16 503.37 447.48 504.09 444 505.55C440.5 507.02 437.38 509.49 434.62 512.97C431.86 516.47 429.7 520.96 428.14 526.49C426.59 532.02 425.74 538.78 425.64 546.8C425.74 554.62 426.56 561.38 428.06 567.11C429.57 572.83 431.65 577.52 434.32 581.17C436.98 584.81 440 587.52 443.38 589.29C446.76 591.06 450.33 591.94 454.09 591.94C455.23 591.94 456.76 591.86 458.69 591.7C460.61 591.54 462.54 591.29 464.48 590.93C466.4 590.56 468.25 590.07 470.02 589.44C471.79 588.81 473.09 587.93 473.93 586.79C473.93 584.89 473.93 575.41 473.93 558.35L454.4 558.35L454.4 545.54L492.52 545.54C492.52 572.27 492.52 587.11 492.52 590.08Z" id="dtYD1acVX"></path></defs><g><g><g><use xlink:href="#c1N5NQn7YW" opacity="1" fill="#e9e9e0" fill-opacity="1"></use><g><use xlink:href="#c1N5NQn7YW" opacity="1" fill-opacity="0" stroke="#000000" stroke-width="1" stroke-opacity="0"></use></g></g><g><use xlink:href="#a2xhmpZJrn" opacity="1" fill="#d9d7ca" fill-opacity="1"></use><g><use xlink:href="#a2xhmpZJrn" opacity="1" fill-opacity="0" stroke="#000000" stroke-width="1" stroke-opacity="0"></use></g></g><g><use xlink:href="#b2jpztvkLM" opacity="1" fill="#f3d55b" fill-opacity="1"></use><g><use xlink:href="#b2jpztvkLM" opacity="1" fill-opacity="0" stroke="#000000" stroke-width="1" stroke-opacity="0"></use></g></g><g><use xlink:href="#dPyGRjUyb" opacity="1" fill="#26b99a" fill-opacity="1"></use><g><use xlink:href="#dPyGRjUyb" opacity="1" fill-opacity="0" stroke="#000000" stroke-width="1" stroke-opacity="0"></use></g></g><g><use xlink:href="#c6h41vbteh" opacity="1" fill="#14a085" fill-opacity="1"></use><g><use xlink:href="#c6h41vbteh" opacity="1" fill-opacity="0" stroke="#000000" stroke-width="1" stroke-opacity="0"></use></g></g><g><use xlink:href="#cFIg47H5X" opacity="1" fill="#ffffff" fill-opacity="1"></use><g><use xlink:href="#cFIg47H5X" opacity="1" fill-opacity="0" stroke="#000000" stroke-width="1" stroke-opacity="0"></use></g></g><g><use xlink:href="#e5hH9THKq" opacity="1" fill="#ffffff" fill-opacity="1"></use><g><use xlink:href="#e5hH9THKq" opacity="1" fill-opacity="0" stroke="#000000" stroke-width="1" stroke-opacity="0"></use></g></g><g><use xlink:href="#bemuZYj1x" opacity="1" fill="#ffffff" fill-opacity="1"></use><g><use xlink:href="#bemuZYj1x" opacity="1" fill-opacity="0" stroke="#000000" stroke-width="1" stroke-opacity="0"></use></g></g><g><use xlink:href="#dtYD1acVX" opacity="1" fill="#ffffff" fill-opacity="1"></use><g><use xlink:href="#dtYD1acVX" opacity="1" fill-opacity="0" stroke="#000000" stroke-width="1" stroke-opacity="0"></use></g></g></g></g></svg>