<svg version="1.1" xmlns="http://www.w3.org/2000/svg" xmlns:xlink="http://www.w3.org/1999/xlink" preserveAspectRatio="xMidYMid meet" viewBox="0 0 192 192" width="192" height="192">
    <defs>
        <path d="M122.71 28.37C122.09 29.82 118.97 37.06 113.36 50.08C68.15 30.61 43.03 19.8 38.01 17.63C36.94 9 29.55 2.28 20.63 2.28C10.98 2.28 3.1 10.14 3.1 19.79C3.1 29.44 10.95 37.32 20.63 37.32C23.74 37.32 26.68 36.5 29.22 35.06C34.66 37.41 61.88 49.13 110.88 70.24C115 72.02 117.29 73.01 117.74 73.21C120.48 74.4 123.65 73.46 125.34 71.13C125.62 70.75 125.85 70.35 126.03 69.91C126.21 69.48 127.15 67.31 128.84 63.41C128.85 63.4 128.89 63.31 128.89 63.3C135.93 46.97 139.84 37.89 140.62 36.07C141.99 32.91 140.49 29.18 137.3 27.79C136.04 27.25 131.65 25.35 131.02 25.08C127.83 23.71 124.08 25.18 122.71 28.37ZM11.16 19.79C11.16 14.57 15.41 10.31 20.63 10.31C23.47 10.31 26 11.55 27.72 13.53C29.19 15.2 30.1 17.41 30.1 19.81C30.1 25.03 25.85 29.29 20.63 29.29C20.02 29.29 19.44 29.23 18.86 29.11C14.47 28.27 11.16 24.42 11.16 19.79Z" id="d2yLdDrIw"></path>
        <linearGradient id="gradienta1rYZv1GAB" gradientUnits="userSpaceOnUse" x1="3.1" y1="38" x2="141.12" y2="38">
            <stop style="stop-color: #109e92;stop-opacity: 1" offset="0%"></stop>
            <stop style="stop-color: #109e92;stop-opacity: 1" offset="100%"></stop>
        </linearGradient>
        <path d="M65.66 19.45C66.19 18.21 70.45 8.34 70.98 7.11C71.64 5.56 73.44 4.86 74.98 5.51C78.97 7.23 110.87 20.97 114.85 22.69C116.4 23.35 117.11 25.15 116.45 26.69C115.92 27.92 111.66 37.79 111.13 39.03C110.47 40.57 108.67 41.28 107.13 40.62C99.15 37.19 71.24 25.17 67.26 23.45C65.71 22.79 65 20.99 65.66 19.45Z" id="e3au54A2tF"></path>
        <linearGradient id="gradiente4ujaS876c" gradientUnits="userSpaceOnUse" x1="65.42" y1="23.07" x2="116.69" y2="23.07">
            <stop style="stop-color: #ffffff;stop-opacity: 1" offset="0%"></stop>
            <stop style="stop-color: #ffffff;stop-opacity: 1" offset="100%"></stop>
        </linearGradient>
        <path d="M124.47 174.43C123.95 175.67 119.8 185.56 119.28 186.79C118.62 188.34 116.85 189.07 115.3 188.42C111.3 186.73 79.28 173.28 75.28 171.6C73.73 170.94 73 169.16 73.66 167.62C74.18 166.38 78.33 156.49 78.85 155.26C79.48 153.71 81.28 152.98 82.83 153.64C90.83 157 118.85 168.77 122.85 170.46C124.39 171.11 125.13 172.89 124.47 174.43Z" id="dq0WwAAzm"></path>
        <linearGradient id="gradientcbj3JrD29" gradientUnits="userSpaceOnUse" x1="73.42" y1="171.03" x2="124.71" y2="171.03">
            <stop style="stop-color: #ffffff;stop-opacity: 1" offset="0%"></stop>
            <stop style="stop-color: #ffffff;stop-opacity: 1" offset="100%"></stop>
        </linearGradient>
        <path d="M17.78 127.48C16.54 126.97 6.63 122.85 5.4 122.34C3.85 121.71 3.12 119.91 3.75 118.36C5.41 114.35 18.73 82.3 20.39 78.29C21.02 76.74 22.82 76.01 24.37 76.64C25.61 77.16 35.52 81.27 36.75 81.79C38.32 82.42 39.06 84.19 38.4 85.74C35.07 93.76 23.42 121.82 21.76 125.83C21.13 127.38 19.33 128.11 17.78 127.48Z" id="i6Z9qAFlFI"></path>
        <linearGradient id="gradientf5x9LNJHHg" gradientUnits="userSpaceOnUse" x1="3.52" y1="102.06" x2="38.64" y2="102.06">
            <stop style="stop-color: #109e92;stop-opacity: 1" offset="0%"></stop>
            <stop style="stop-color: #109e92;stop-opacity: 1" offset="100%"></stop>
        </linearGradient>
        <path d="M156.95 30.75C154.63 36.19 143.05 63.4 122.22 112.39C120.47 116.51 119.5 118.79 119.31 119.25C118.93 120.16 118.75 121.13 118.8 122.06C118.8 122.11 118.8 122.19 118.82 122.24C118.82 122.32 118.82 122.37 118.85 122.44C118.85 122.44 118.85 122.47 118.85 122.47C118.87 122.57 118.87 122.7 118.9 122.8C118.93 122.9 118.93 123 118.95 123.1C118.95 123.15 118.98 123.2 119 123.25C119.03 123.35 119.05 123.43 119.08 123.51C119.1 123.61 119.13 123.71 119.18 123.81C119.18 123.86 119.2 123.89 119.23 123.94C119.25 124.04 119.31 124.14 119.36 124.22C119.41 124.32 119.43 124.39 119.48 124.49C119.51 124.54 119.53 124.62 119.58 124.67C119.58 124.7 119.61 124.72 119.61 124.75C119.66 124.82 119.69 124.9 119.74 124.95C119.76 125.03 119.81 125.08 119.86 125.13C119.91 125.2 119.96 125.3 120.04 125.38C120.09 125.43 120.12 125.51 120.17 125.56C120.24 125.63 120.29 125.71 120.37 125.81C120.42 125.86 120.45 125.91 120.5 125.96C120.52 125.99 120.52 125.99 120.55 126.01C120.57 126.04 120.57 126.04 120.6 126.06C120.62 126.09 120.62 126.09 120.62 126.09C120.8 126.27 120.98 126.44 121.18 126.6C121.18 126.6 121.18 126.6 121.18 126.6C121.28 126.67 121.38 126.75 121.48 126.82C121.86 127.1 122.27 127.33 122.7 127.51C123.12 127.69 125.23 128.59 129.03 130.22C129.06 130.23 129.31 130.34 129.34 130.35C145.7 137.31 154.8 141.17 156.62 141.95C159.81 143.31 163.56 141.79 164.9 138.6C165.17 137.97 167.32 132.93 167.58 132.3C168.95 129.1 167.43 125.38 164.24 124.01C162.79 123.4 155.54 120.31 142.48 114.77C161.97 68.98 172.79 43.54 174.96 38.45C183.09 36.93 189.24 29.79 189.24 21.22C189.17 11.57 181.31 3.72 171.64 3.72C161.99 3.72 154.11 11.57 154.11 21.22C154.11 24.74 155.15 28.01 156.95 30.75ZM162.16 21.22C162.16 21.05 162.16 20.84 162.19 20.67C162.19 20.67 162.19 20.67 162.19 20.67C162.47 15.7 166.6 11.75 171.66 11.75C176.88 11.75 181.14 16.01 181.14 21.22C181.14 23.73 180.15 26.01 178.55 27.71C176.83 29.56 174.37 30.7 171.64 30.7C166.42 30.7 162.16 26.44 162.16 21.22Z" id="bxLm5Lw4v"></path>
        <linearGradient id="gradientardizkPYv" gradientUnits="userSpaceOnUse" x1="118.79" y1="73.09" x2="189.24" y2="73.09">
            <stop style="stop-color: #ffffff;stop-opacity: 1" offset="0%"></stop>
            <stop style="stop-color: #ffffff;stop-opacity: 1" offset="100%"></stop>
        </linearGradient>
        <path d="M60.63 64.33C60.62 64.33 60.57 64.3 60.56 64.3C44.13 57.49 35 53.71 33.17 52.95C29.96 51.61 26.23 53.15 24.92 56.37C24.65 57 22.55 62.07 22.28 62.7C20.94 65.92 22.49 69.64 25.7 70.96C27.16 71.57 34.44 74.59 47.54 80.03C28.33 126.32 17.65 152.04 15.52 157.19C8.25 159.31 2.93 166.05 2.93 174C2.93 183.65 10.78 191.53 20.46 191.53C30.11 191.53 37.99 183.68 37.99 174C37.99 169.9 36.57 166.13 34.19 163.14C37.54 155.04 64.39 90.3 67.75 82.21C67.85 82.03 67.93 81.85 68 81.68C68.27 81.04 70.37 75.98 70.64 75.34C71.7 72.71 70.89 69.75 68.81 68.02C68.33 67.62 67.8 67.29 67.22 67.06C66.78 66.88 64.58 65.97 60.63 64.33ZM12.53 168.81C14.23 166.23 17.14 164.53 20.46 164.53C25.35 164.53 29.37 168.25 29.88 173.02C29.88 173.02 29.88 173.02 29.88 173.02C29.91 173.35 29.93 173.67 29.93 174C29.93 179.22 25.68 183.48 20.46 183.48C15.24 183.48 10.99 179.22 10.99 174C10.99 172.08 11.57 170.31 12.53 168.81Z" id="a3amJ87yS"></path>
        <linearGradient id="gradientb18IUEhHjF" gradientUnits="userSpaceOnUse" x1="2.93" y1="122" x2="71.11" y2="122">
            <stop style="stop-color: #ffffff;stop-opacity: 1" offset="0%"></stop>
            <stop style="stop-color: #ffffff;stop-opacity: 1" offset="100%"></stop>
        </linearGradient>
        <path d="M79.72 124.03C75.6 122.3 73.31 121.34 72.85 121.15C70.4 120.13 67.64 120.77 65.89 122.56C65.36 123.12 64.9 123.76 64.6 124.52C64.41 124.95 63.5 127.12 61.86 131.03C54.95 147.5 51.1 156.65 50.34 158.48C48.99 161.7 50.51 165.42 53.71 166.77C54.34 167.03 59.38 169.16 60.01 169.43C63.23 170.77 66.95 169.25 68.3 166.06C68.91 164.6 71.96 157.33 77.46 144.25C123.04 163.4 148.37 174.04 153.43 176.16C154.57 184.72 161.91 191.34 170.78 191.34C180.43 191.34 188.31 183.48 188.31 173.81C188.31 164.16 180.46 156.28 170.78 156.28C167.61 156.28 164.63 157.14 162.04 158.61C156.55 156.3 129.11 144.78 79.72 124.03ZM163.64 180.01C162.19 178.34 161.31 176.16 161.31 173.81C161.31 168.59 165.56 164.33 170.78 164.33C171.26 164.33 171.72 164.36 172.2 164.44C176.76 165.12 180.28 169.07 180.28 173.81C180.28 179.03 176.02 183.28 170.78 183.28C167.92 183.28 165.36 182.01 163.64 180.01C163.64 180.01 163.64 180.01 163.64 180.01Z" id="a4cJgm2eoS"></path>
        <linearGradient id="gradientc75Gl5vvNm" gradientUnits="userSpaceOnUse" x1="49.85" y1="156" x2="188.31" y2="156">
            <stop style="stop-color: #109e92;stop-opacity: 1" offset="0%"></stop>
            <stop style="stop-color: #109e92;stop-opacity: 1" offset="100%"></stop>
        </linearGradient>
    </defs>
    <g>
        <g>
            <g><use xlink:href="#d2yLdDrIw" opacity="1" fill="url(#gradienta1rYZv1GAB)"></use><g><use xlink:href="#d2yLdDrIw" opacity="1" fill-opacity="0" stroke="#000000" stroke-width="1" stroke-opacity="0"></use></g></g>
            <g><use xlink:href="#e3au54A2tF" opacity="1" fill="url(#gradiente4ujaS876c)"></use><g><use xlink:href="#e3au54A2tF" opacity="1" fill-opacity="0" stroke="#000000" stroke-width="1" stroke-opacity="0"></use></g>
        </g>
        <g><use xlink:href="#dq0WwAAzm" opacity="1" fill="url(#gradientcbj3JrD29)"></use><g><use xlink:href="#dq0WwAAzm" opacity="1" fill-opacity="0" stroke="#000000" stroke-width="1" stroke-opacity="0"></use></g></g>    
        <g><use xlink:href="#i6Z9qAFlFI" opacity="1" fill="url(#gradientf5x9LNJHHg)"></use><g><use xlink:href="#i6Z9qAFlFI" opacity="1" fill-opacity="0" stroke="#000000" stroke-width="1" stroke-opacity="0"></use></g></g>
        <g><use xlink:href="#bxLm5Lw4v" opacity="1" fill="url(#gradientardizkPYv)"></use><g><use xlink:href="#bxLm5Lw4v" opacity="1" fill-opacity="0" stroke="#000000" stroke-width="1" stroke-opacity="0"></use></g></g>
        <g><use xlink:href="#a3amJ87yS" opacity="1" fill="url(#gradientb18IUEhHjF)"></use><g><use xlink:href="#a3amJ87yS" opacity="1" fill-opacity="0" stroke="#000000" stroke-width="1" stroke-opacity="0"></use></g></g>
        <g><use xlink:href="#a4cJgm2eoS" opacity="1" fill="url(#gradientc75Gl5vvNm)"></use><g><use xlink:href="#a4cJgm2eoS" opacity="1" fill-opacity="0" stroke="#000000" stroke-width="1" stroke-opacity="0"></use></g></g></g>
    </g>
</svg>