<svg xmlns="http://www.w3.org/2000/svg" width="81.298" height="80.58" viewBox="0 0 60.97 60.43"><path d="M3.69 28.49c-1.65 9.8 2.53 19.67 8.88 25s14.53 7 22.47 6.93a31.66 31.66 0 0013.83-2.7 21.74 21.74 0 0010.59-11.5c3.35-8.63.7-18.61-3.65-25.78a42.43 42.43 0 00-9.47-11.09c-5.88-4.82-6.88 29-38.34 16.32" fill="#1a2e44"/><path d="M52.93 16.45a42.83 42.83 0 00-9.47-11.1A30.18 30.18 0 0033 .48a8.65 8.65 0 01-.88.65 6.94 6.94 0 01-.29 3.64 6.07 6.07 0 01-2.94 3.17 8.16 8.16 0 01-1.65.53 7.19 7.19 0 01-.12 4.58 6 6 0 01-2.94 3.17 8.85 8.85 0 01-3.82.76h-.89a6.94 6.94 0 01-.35 3.29 6 6 0 01-2.94 3.17 8.7 8.7 0 01-3.82.76 9.18 9.18 0 01-6.26-1.94c-.12-.05-.18-.17-.29-.29a9.27 9.27 0 01-3.3.53 9.73 9.73 0 01-1.29-.06l-.36 1.94a27.5 27.5 0 008.89 25c6.35 5.35 14.41 7.11 22.41 7A31.69 31.69 0 0046 53.74a21.56 21.56 0 0010.58-11.51c3.35-8.63.7-18.61-3.65-25.78z" fill="#fff"/><path d="M53.4 15.92C50.69 11.52 47.22 7 42.93 4a27.22 27.22 0 00-5.83-2.93C35 .3 33.63-.64 31.81.6a1.09 1.09 0 00-.41.82 5.51 5.51 0 01-4.3 6.46.92.92 0 00-.53.88c1.12 5.11-2.35 7.69-7.06 7.57-.41 0-.7.59-.7.94.47 6.11-6.71 7.75-11.18 5.29-.59-.35-1.12-1-1.82-1.12a8.13 8.13 0 00-1.65.41 14.86 14.86 0 01-2.83.06.83.83 0 00-.82.77C-2 37.18 4.92 51.33 19.57 55.62c14.24 4.17 33.48 1.05 38.12-15.09 2.47-8.4 0-17.33-4.29-24.61-.35-.64-1.35.47-1 1.06 4.94 8.4 7.35 19.55 2 28.3S39 56.14 29.45 55.68c-8.7-.42-17.45-3.35-22.88-10.46C1.45 38.59.28 30.54 1.69 22.44c-.3.24-.53.53-.83.76 1.71.12 3.71-.58 5.18 0 2.47 1 4.3 1.88 7.12 1.65 4.47-.3 7.18-3.7 6.88-8-.23.3-.47.65-.7.94 5.7.12 9.7-3.58 8.41-9.39l-.53.88a7.06 7.06 0 005.06-4.29c.29-.7.12-2.82.41-3.29.65-.88 4.47 1.06 5.41 1.47C44.34 5.88 48.87 11.28 52.4 17c.47.63 1.41-.49 1-1.08z" fill="#1a2e44"/><path d="M39.1 11.52a1.33 1.33 0 00.41-.24c1.36-.58 2-.29 2.42.65a1.78 1.78 0 01-1 2.64c-1.42.53-2.83.3-3.18-.58a1.37 1.37 0 01.06-1.18" fill="#fff"/><path d="M39.22 12.05c.47-.24 1.29-.65 1.82-.41a1.42 1.42 0 01.59 1.46c-.23 1.53-4.06 1.71-3.47 0 .18-.58-.53-1.29-.76-.52a2 2 0 001.35 2.81 3.25 3.25 0 003.53-1.29 3 3 0 00-.24-3c-.76-1.12-2-.77-3-.24-.58.37-.35 1.48.18 1.19z" fill="#1a2e44"/><path d="M22.63 37.24a.6.6 0 01.24-.3c.76-.94 1.29-1 1.94-.47a1.48 1.48 0 01.35 2.29c-.76.94-1.88 1.3-2.47.83a1 1 0 01-.41-.83" fill="#fff"/><path d="M23 37.65c.24-.36.65-1 1.18-.88a1.24 1.24 0 01.94 1c-.06.83-2.23 2.18-2.41.88-.12-.7-1-.7-.88.06a1.61 1.61 0 001.82 1.59A3 3 0 0026 38.23a2.27 2.27 0 00-1.23-2.46c-1-.53-1.83.29-2.35 1.11-.42.41.15 1.35.58.77z" fill="#1a2e44"/><path d="M34 47.28a4.5 4.5 0 01.3-.41c.94-1.18 1.59-1.18 2.41-.59a1.86 1.86 0 01.41 2.82c-.94 1.17-2.29 1.64-3.12 1a1.57 1.57 0 01-.49-1.1" fill="#fff"/><path d="M34.4 47.63c.29-.47.88-1.29 1.53-1.17a1.68 1.68 0 011.23 1.46C37 49 34.22 50.8 34 49c-.11-.7-1-.7-.88.06a2 2 0 002.12 1.88A3.47 3.47 0 0038 48.39a2.75 2.75 0 00-1.47-2.87c-1.17-.65-2.17.41-2.82 1.35-.31.47.29 1.41.69.76z" fill="#1a2e44"/><path d="M43.69 28.9c.06-.06.12-.18.18-.23.59-.77 1-.77 1.53-.36a1.14 1.14 0 01.29 1.76c-.59.77-1.47 1.06-1.94.65a1.38 1.38 0 01-.35-.65" fill="#fff"/><path d="M44 29.25c.18-.29.48-.7.83-.64s.65.41.65.7c0 .53-1.59 1.53-1.71.71-.06-.24-.18-.59-.47-.59a.48.48 0 00-.41.59c.11.82.64 1.52 1.53 1.4a2.32 2.32 0 001.88-1.76 2.05 2.05 0 00-1-2.11c-.82-.47-1.53.23-2 .88-.3.57.33 1.47.7.82z" fill="#1a2e44"/><path d="M7 31.89c.06-.05.12-.17.18-.23.59-.76 1-.76 1.53-.35A1.17 1.17 0 019 33.07c-.59.76-1.47 1.06-1.94.64a1.35 1.35 0 01-.35-.64" fill="#fff"/><path d="M7.39 32.25c.18-.3.47-.71.83-.65s.64.41.64.71c0 .52-1.58 1.52-1.7.7-.06-.24-.18-.59-.47-.59a.48.48 0 00-.41.59c.11.82.64 1.53 1.53 1.41a2.33 2.33 0 001.88-1.76 2.08 2.08 0 00-1-2.12c-.83-.47-1.53.24-2 .88-.3.58.31 1.47.7.83z" fill="#1a2e44"/><path d="M26.4 22.38c.05-.12.17-.23.23-.35.82-1.06 1.47-1.12 2.18-.53a1.67 1.67 0 01.41 2.5c-.82 1-2.12 1.46-2.82.94a1.28 1.28 0 01-.47-.94" fill="#fff"/><path d="M26.75 22.79c.29-.41.76-1.11 1.35-1.05A1.42 1.42 0 0129.22 23c-.12.94-2.59 2.52-2.82 1-.12-.71-1-.71-.89 0a1.79 1.79 0 001.94 1.77A3.32 3.32 0 0030 23.5a2.59 2.59 0 00-1.35-2.7c-1.12-.59-2 .35-2.59 1.23-.31.47.28 1.41.69.76z" fill="#1a2e44"/></svg>