<svg id="Capa_1" enable-background="new 0 0 512 512" height="512" viewBox="0 0 512 512" width="512" xmlns="http://www.w3.org/2000/svg" xmlns:xlink="http://www.w3.org/1999/xlink"><linearGradient id="SVGID_1_" gradientUnits="userSpaceOnUse" x1="600.494" x2="-111.506" y1="66.598" y2="554.598"><stop offset=".008" stop-color="#ffe8dc" stop-opacity="0"/><stop offset=".9977" stop-color="#ffc599"/></linearGradient><g><path d="m465.257 166.614c-14.861-17.312-24.645-38.356-29.218-60.708-3.878-18.954-12.095-35.401-24.961-48.267-58.773-58.773-192.264-20.572-298.161 85.325s-144.098 239.387-85.325 298.16c27.937 27.937 72.757 33.955 123.469 21.212 29.453-7.401 60.532-4.287 88.29 8.03 23.202 10.295 48.799 16.173 75.724 16.566 105.676 1.543 193.748-82.552 196.839-188.195 1.479-50.505-16.354-96.822-46.657-132.123z" fill="url(#SVGID_1_)"/><g><g><g><g><g><g><path d="m132.1 468.171c0 11.5 9.33 20.83 20.84 20.83h206.12c11.51 0 20.84-9.33 20.84-20.83v-392.34c0-11.5-9.33-20.83-20.84-20.83h-206.12c-11.51 0-20.84 9.33-20.84 20.83z" fill="#00c" opacity=".1"/><path d="m379.9 48.83v392.34c0 11.5-9.33 20.83-20.84 20.83h-206.12c-11.51 0-20.84-9.33-20.84-20.83v-392.34c0-11.5 9.33-20.83 20.84-20.83h206.12c11.51 0 20.84 9.33 20.84 20.83z" fill="#fff"/><path d="m379.9 114.14v128.67h-116.54l-16.04 20.35c-2 2.54-5.85 2.54-7.85 0l-16.04-20.35h-30.22c-2.77 0-5-2.24-5-5v-118.67c0-2.76 2.23-5 5-5z" fill="#fee"/><path d="m379.9 296.44v128.67h-97.09c-2.76 0-5-2.24-5-5v-118.67c0-2.76 2.24-5 5-5h30.22l16.04-20.35c2-2.54 5.85-2.54 7.85 0l16.04 20.35z" fill="#ebebff"/><path d="m323.547 56.006 8.453-28.007h-152l8.453 28.007c1.274 4.222 5.164 7.11 9.573 7.11h115.946c4.411 0 8.3-2.889 9.575-7.11z" fill="#ffab66"/></g></g><g><circle cx="212.008" cy="45.557" fill="#6c6cff" r="4.854"/></g><g><circle cx="228.333" cy="45.557" fill="#6c6cff" r="4.854"/></g><g><path d="m296.601 50.411h-37.202c-2.573 0-4.659-2.086-4.659-4.659s2.086-4.659 4.659-4.659h37.202c2.573 0 4.659 2.086 4.659 4.659s-2.086 4.659-4.659 4.659z" fill="#ff8b00"/></g></g></g><path d="m417.392 94h-224.187c-2.761 0-5 2.239-5 5v118.667c0 2.761 2.239 5 5 5h30.22l16.04 20.351c2.002 2.54 5.852 2.54 7.854 0l16.04-20.351h154.033c2.761 0 5-2.239 5-5v-118.667c0-2.761-2.238-5-5-5z" fill="#ff9494"/><g><path d="m476.994 404.964h-194.187c-2.761 0-5-2.239-5-5v-118.667c0-2.761 2.239-5 5-5h30.22l16.04-20.351c2.002-2.54 5.852-2.54 7.854 0l16.04 20.351h124.033c2.761 0 5 2.239 5 5v118.667c0 2.762-2.239 5-5 5z" fill="#8383ff"/><path d="m476.993 271.297h-92.095v-41.297c0-.843-.209-1.637-.577-2.333h33.071c5.514 0 10-4.486 10-10v-118.667c0-5.514-4.486-10-10-10h-32.492l-.002-40.166c0-14.246-11.59-25.835-25.835-25.835h-206.126c-14.245 0-25.835 11.59-25.835 25.835v392.333c0 14.246 11.59 25.835 25.835 25.835h206.127c14.245 0 25.835-11.59 25.835-25.835v-31.203h92.095c5.514 0 10-4.486 10-10v-118.667c-.001-5.514-4.487-10-10.001-10zm-151.725-238.298-6.508 21.562c-.642 2.126-2.565 3.555-4.786 3.555h-115.948c-2.221 0-4.145-1.429-4.786-3.555l-6.508-21.562zm151.725 366.965h-194.186v-30.464c0-2.761-2.238-5-5-5s-5 2.239-5 5v30.464c0 5.514 4.486 10 10 10h92.092v31.203c0 8.732-7.104 15.835-15.835 15.835h-206.127c-8.731 0-15.835-7.104-15.835-15.835v-392.333c0-8.732 7.104-15.835 15.835-15.835h23.349l7.38 24.452c1.926 6.379 7.697 10.666 14.36 10.666h115.947c6.663 0 12.435-4.286 14.36-10.666l7.38-24.452h23.349c8.731 0 15.835 7.104 15.835 15.835l.003 45.166c0 2.762 2.238 5 5 5h37.492v118.667h-154.033c-1.531 0-2.979.702-3.927 1.905l-16.041 20.352-16.039-20.351c-.948-1.203-2.396-1.905-3.927-1.905h-30.221v-118.668h152.694c2.762 0 5-2.239 5-5s-2.238-5-5-5h-152.693c-5.514 0-10 4.486-10 10v118.667c0 5.514 4.486 10 10 10h27.795l14.538 18.446c1.908 2.421 4.771 3.81 7.854 3.81 3.084 0 5.946-1.389 7.854-3.81l14.539-18.446h109.69c-.368.697-.577 1.491-.577 2.333v41.297h-19.512l-14.54-18.446c-1.908-2.421-4.771-3.81-7.854-3.81s-5.945 1.389-7.854 3.81l-14.539 18.446h-27.794c-5.514 0-10 4.486-10 10v54.203c0 2.761 2.238 5 5 5s5-2.239 5-5v-54.203h30.22c1.531 0 2.979-.702 3.927-1.905l16.04-20.351 16.041 20.351c.948 1.203 2.396 1.905 3.927 1.905h124.032v118.667z" fill="#00c"/></g><path d="m238.962 294.767c-6.718-6.718-17.609-6.718-24.327 0l-11.929 11.93-11.93-11.93c-6.718-6.718-17.609-6.718-24.327 0-6.718 6.718-6.718 17.609 0 24.327l32.462 32.462c2.096 2.096 5.493 2.096 7.589 0l32.462-32.462c6.717-6.718 6.717-17.609 0-24.327z" fill="#ff9494"/><g><g><path d="m163.104 372.928h79.202c2.573 0 4.659 2.086 4.659 4.659s-2.086 4.659-4.659 4.659h-79.202c-2.573 0-4.659-2.086-4.659-4.659s2.086-4.659 4.659-4.659z" fill="#ffab66"/></g><g><path d="m163.104 388.737h58.202c2.573 0 4.659 2.086 4.659 4.659s-2.086 4.659-4.659 4.659h-58.202c-2.573 0-4.659-2.086-4.659-4.659s2.086-4.659 4.659-4.659z" fill="#ffab66"/></g></g><circle cx="166.725" cy="258.5" fill="#6c6cff" r="7.801"/><g fill="#fff"><circle cx="347.233" cy="341.847" r="7.801"/><circle cx="379.9" cy="341.847" r="7.801"/><circle cx="412.567" cy="341.847" r="7.801"/></g><g><path d="m325.911 119.737h58.202c2.573 0 4.659 2.086 4.659 4.659s-2.086 4.659-4.659 4.659h-58.202c-2.573 0-4.659-2.086-4.659-4.659s2.085-4.659 4.659-4.659z" fill="#fff"/></g><g><path d="m231.809 147.5h152.303c2.573 0 4.659 2.086 4.659 4.659s-2.086 4.659-4.659 4.659h-152.303c-2.573 0-4.659-2.086-4.659-4.659s2.086-4.659 4.659-4.659z" fill="#fff"/></g><g><path d="m261.809 166.263h122.303c2.573 0 4.659 2.086 4.659 4.659s-2.086 4.659-4.659 4.659h-122.303c-2.573 0-4.659-2.086-4.659-4.659s2.086-4.659 4.659-4.659z" fill="#fff"/></g><g><path d="m231.809 185.025h152.303c2.573 0 4.659 2.086 4.659 4.659s-2.086 4.659-4.659 4.659h-152.303c-2.573 0-4.659-2.086-4.659-4.659s2.086-4.659 4.659-4.659z" fill="#fff"/></g></g><path d="" fill="#8383ff"/><g><path d="m71.094 130.14c-1.279 0-2.56-.488-3.535-1.464l-11-11c-1.953-1.953-1.953-5.119 0-7.071l11-11c1.951-1.952 5.119-1.952 7.07 0l11 11c1.953 1.953 1.953 5.119 0 7.071l-11 11c-.976.976-2.256 1.464-3.535 1.464zm-3.929-16 3.929 3.929 3.929-3.929-3.929-3.929z" fill="#ff9d33"/></g><g><path d="m82.094 183.934c-7.175 0-13.012-5.837-13.012-13.012s5.837-13.012 13.012-13.012 13.012 5.837 13.012 13.012-5.837 13.012-13.012 13.012zm0-16.024c-1.661 0-3.012 1.351-3.012 3.012s1.351 3.012 3.012 3.012 3.012-1.351 3.012-3.012c-.001-1.661-1.351-3.012-3.012-3.012z" fill="#ff6c6c"/></g><g><path d="m439 78.707c-7.175 0-13.012-5.837-13.012-13.012s5.837-13.011 13.012-13.011 13.012 5.837 13.012 13.012-5.837 13.011-13.012 13.011zm0-16.023c-1.661 0-3.012 1.351-3.012 3.012s1.351 3.012 3.012 3.012 3.012-1.351 3.012-3.012-1.351-3.012-3.012-3.012z" fill="#6c6cff"/></g><g><path d="m82.094 383.221c-1.326 0-2.598-.527-3.535-1.464l-11.293-11.292c-.938-.938-1.465-2.209-1.465-3.536s.526-2.598 1.465-3.536l11.293-11.293c.938-.938 2.209-1.464 3.535-1.464 1.326 0 2.598.527 3.535 1.464l11.292 11.292c1.953 1.953 1.953 5.119 0 7.071l-11.292 11.292c-.938.939-2.209 1.466-3.535 1.466zm-4.222-16.293 4.222 4.221 4.221-4.221-4.221-4.221z" fill="#6c6cff"/></g><g><path d="m420.367 468.763c-1.326 0-2.598-.527-3.535-1.464l-11.292-11.292c-1.953-1.953-1.953-5.119 0-7.071l11.292-11.292c.938-.938 2.209-1.464 3.535-1.464s2.598.527 3.535 1.464l11.292 11.292c1.953 1.953 1.953 5.119 0 7.071l-11.292 11.292c-.937.937-2.209 1.464-3.535 1.464zm-4.221-16.292 4.221 4.221 4.221-4.221-4.221-4.221z" fill="#ff6c6c"/></g></g></g></svg>