<svg id="Capa_1" enable-background="new 0 0 512 512" height="512" viewBox="0 0 512 512" width="512" xmlns="http://www.w3.org/2000/svg" xmlns:xlink="http://www.w3.org/1999/xlink"><linearGradient id="SVGID_1_" gradientUnits="userSpaceOnUse" x1="389.195" x2="19.62" y1="445.006" y2="20.338"><stop offset=".0023" stop-color="#e2ccff"/><stop offset="1" stop-color="#fff" stop-opacity="0"/></linearGradient><g><path d="m338.92 70.183c-1.369 0-2.734.012-4.096.037-33.932.616-66.631-11.72-93.007-33.075-23.389-18.936-53.236-30.21-85.724-29.998-74.135.484-135.234 63.074-134.007 137.2.33 19.96 4.996 38.864 13.096 55.813 13.801 28.879 10.825 63.235-8.352 88.861-7.92 10.584-14.402 22.515-19.061 35.605-24.826 69.757 11.848 147.296 81.551 172.272 70.982 25.434 148.823-12.162 173.19-83.256 1.805-5.266 3.265-10.567 4.393-15.878 7.162-33.729 36.586-57.876 71.067-57.732.317.001.634.002.951.002 95.59 0 173.08-60.408 173.08-134.925s-77.492-134.926-173.081-134.926z" fill="url(#SVGID_1_)"/><g><path d="m449.04 55.374c-21.932 0-40.042 16.317-42.881 37.472h-124.319c-5.52 0-10 4.48-10 10v43.263h-26.941c-1.183-4.204-5.038-7.293-9.619-7.293h-131.703c-6.094-16.522-21.978-28.304-40.617-28.304-23.903 0-43.28 19.377-43.28 43.28 0 18.017 11.011 33.457 26.669 39.972v99.433c0 5.52 4.47 10 10 10h.386v67.857c0 8.284 6.716 15 15 15h111.481v11.179c0 5.523 4.477 10 10 10h20.884v56h-39.353c-5.631 0-10.196 4.565-10.196 10.196s4.565 10.197 10.196 10.197h156.065c5.631 0 10.196-4.565 10.196-10.197s-4.565-10.196-10.196-10.196h-39.352v-56h20.883c5.523 0 10-4.477 10-10v-11.179h111.481c8.284 0 15-6.716 15-15v-153.517h6.276c5.52 0 10-4.48 10-10v-68.693c15.948-6.379 27.22-21.963 27.22-40.189 0-23.904-19.378-43.281-43.28-43.281z" fill="#590bb2" opacity=".1"/><path d="m245.276 70.512h-3v-3c0-2.761-2.239-5-5-5s-5 2.239-5 5v3h-3c-2.761 0-5 2.239-5 5s2.239 5 5 5h3v3c0 2.761 2.239 5 5 5s5-2.239 5-5v-3h3c2.761 0 5-2.239 5-5s-2.238-5-5-5z" fill="#ffa052"/><path d="m373.821 407.219h-3v-3c0-2.761-2.239-5-5-5s-5 2.239-5 5v3h-3c-2.761 0-5 2.239-5 5s2.239 5 5 5h3v3c0 2.761 2.239 5 5 5s5-2.239 5-5v-3h3c2.761 0 5-2.239 5-5s-2.239-5-5-5z" fill="#fdd250"/><path d="m143 407.219h-3v-3c0-2.761-2.239-5-5-5s-5 2.239-5 5v3h-3c-2.761 0-5 2.239-5 5s2.239 5 5 5h3v3c0 2.761 2.239 5 5 5s5-2.239 5-5v-3h3c2.761 0 5-2.239 5-5s-2.239-5-5-5z" fill="#c182f9"/><path d="m415.543 439.563c-1.28 0-2.559-.488-3.536-1.464l-4.464-4.464-4.464 4.464c-1.953 1.952-5.118 1.952-7.071 0-1.953-1.953-1.953-5.119 0-7.071l8-8c1.953-1.952 5.118-1.952 7.071 0l8 8c1.953 1.953 1.953 5.119 0 7.071-.976.976-2.256 1.464-3.536 1.464z" fill="#ffa052"/><path d="m198.459 63.065c-1.28 0-2.559-.488-3.536-1.464l-4.464-4.464-4.464 4.464c-1.953 1.952-5.118 1.952-7.071 0-1.953-1.953-1.953-5.119 0-7.071l8-8c1.953-1.952 5.118-1.952 7.071 0l8 8c1.953 1.953 1.953 5.119 0 7.071-.976.976-2.256 1.464-3.536 1.464z" fill="#c182f9"/><g><path d="m214.1 350.503h77.36v99.06h-77.36z" fill="#efebff"/><path d="m214.1 350.503h77.36v46.05h-77.36z" fill="#e2ccff"/><path d="m312.342 380.233h-119.125c-5.523 0-10-4.477-10-10v-22.648h139.125v22.648c0 5.523-4.477 10-10 10z" fill="#ffa052"/><g><path d="m433.824 359.054h-362.088c-8.284 0-15-6.716-15-15v-209.944c0-8.284 6.716-15 15-15h362.088c8.284 0 15 6.716 15 15v209.944c0 8.284-6.716 15-15 15z" fill="#c182f9"/><g><path d="m448.82 134.107v184.55h-392.08v-184.55c0-8.28 6.71-15 15-15h362.08c8.29 0 15 6.72 15 15z" fill="#fff"/></g><path d="m182.46 318.657-2.34 6.87c-2.66 7.83-13.72 7.83-16.38 0l-2.34-6.87z" fill="#b557ff"/><g fill="#efebff"><path d="m245.28 146.407v144.38c0 5.52-4.48 10-10 10h-46.75l-6.07 17.87h-21.06l-6.08-17.87h-98.58v-164.38h178.54c5.52 0 10 4.48 10 10z"/><path d="m448.82 134.107v81.02h-97.15l-8.42 24.74c-2.66 7.82-13.72 7.82-16.38 0l-8.41-24.74h-36.62c-5.52 0-10-4.48-10-10v-86.02h161.98c8.29 0 15 6.72 15 15z"/></g></g><path d="m330.812 456.626h-156.065c-5.631 0-10.196-4.565-10.196-10.196 0-5.631 4.565-10.196 10.196-10.196h156.065c5.631 0 10.196 4.565 10.196 10.196.001 5.631-4.564 10.196-10.196 10.196z" fill="#b557ff"/></g><g><g><path d="m245.28 121.817v144.38c0 5.52-4.48 10-10 10h-46.75l-8.41 24.74c-2.66 7.83-13.72 7.83-16.38 0l-8.42-24.74h-98.97c-5.53 0-10-4.48-10-10v-144.38c0-5.52 4.47-10 10-10h178.93c5.52 0 10 4.48 10 10z" fill="#ffe783"/><path d="m106.24 142.507c0 23.9-19.38 43.28-43.28 43.28-5.89 0-11.5-1.17-16.61-3.31v-60.66c0-5.52 4.47-10 10-10h37.13c7.88 7.84 12.76 18.69 12.76 30.69z" fill="#fdd250"/><g><g><g><path d="m167.2 161.165h49.52c2.762 0 5-2.239 5-5s-2.238-5-5-5h-49.52c-2.762 0-5 2.239-5 5s2.238 5 5 5z" fill="#c182f9"/></g><g><path d="m221.72 173.667c0 2.76-2.24 5-5 5h-134.65c-2.76 0-5-2.24-5-5s2.24-5 5-5h134.65c2.76 0 5 2.24 5 5z" fill="#c182f9"/></g><path d="m97.44 168.667c-2.97 3.91-6.59 7.29-10.69 10h-4.68c-2.76 0-5-2.24-5-5s2.24-5 5-5z" fill="#b557ff"/></g><g><g><path d="m82.074 196.17h134.646c2.762 0 5-2.239 5-5s-2.238-5-5-5h-134.646c-2.762 0-5 2.239-5 5s2.238 5 5 5z" fill="#c182f9"/></g><g><path d="m82.074 213.673h134.646c2.762 0 5-2.239 5-5s-2.238-5-5-5h-134.646c-2.762 0-5 2.239-5 5s2.238 5 5 5z" fill="#c182f9"/></g></g></g><g><g><g><path d="m82.074 248.585h134.646c2.762 0 5-2.239 5-5s-2.238-5-5-5h-134.646c-2.762 0-5 2.239-5 5s2.238 5 5 5z" fill="#c182f9"/></g></g></g><g><circle cx="62.96" cy="126.792" fill="#fdd250" r="43.28"/><path d="m79.574 120.986c0-9.161-7.453-16.613-16.613-16.613s-16.613 7.453-16.613 16.613c0 4.518 1.818 8.615 4.754 11.613-2.936 2.998-4.754 7.095-4.754 11.613 0 2.761 2.239 5 5 5s5-2.239 5-5c0-3.646 2.967-6.613 6.613-6.613s6.613 2.966 6.613 6.613c0 2.761 2.239 5 5 5s5-2.239 5-5c0-4.518-1.818-8.615-4.754-11.613 2.936-2.998 4.754-7.095 4.754-11.613zm-16.614-6.614c3.646 0 6.613 2.967 6.613 6.613s-2.967 6.613-6.613 6.613-6.613-2.967-6.613-6.613 2.967-6.613 6.613-6.613z" fill="#fff"/></g></g><g><g><path d="m465.1 75.847v104.69c0 5.52-4.48 10-10 10h-103.43l-8.42 24.74c-2.66 7.82-13.72 7.82-16.38 0l-8.41-24.74h-36.62c-5.52 0-10-4.48-10-10v-104.69c0-5.52 4.48-10 10-10h173.26c5.52 0 10 4.48 10 10z" fill="#ffbe92"/><path d="m465.1 75.847v51.72c-4.97 1.99-10.39 3.08-16.06 3.08-23.9 0-43.28-19.38-43.28-43.28 0-7.83 2.08-15.18 5.72-21.52h43.62c5.52 0 10 4.48 10 10z" fill="#ffa052"/><g><g><g><path d="m350.589 107.475h-49.52c-2.762 0-5-2.239-5-5s2.238-5 5-5h49.52c2.762 0 5 2.239 5 5s-2.238 5-5 5z" fill="#fff"/></g><g><path d="m440.72 119.977c0 2.76-2.24 5-5 5h-134.65c-2.76 0-5-2.24-5-5s2.24-5 5-5h134.65c2.76 0 5 2.24 5 5z" fill="#fff"/></g><path d="m440.72 119.977c0 2.76-2.24 5-5 5h-8.11c-4.55-2.6-8.58-5.99-11.9-10h20.01c2.76 0 5 2.24 5 5z" fill="#ffeadc"/></g><g><g><path d="m435.716 142.48h-134.646c-2.762 0-5-2.239-5-5s2.238-5 5-5h134.646c2.762 0 5 2.239 5 5s-2.239 5-5 5z" fill="#fff"/></g><g><path d="m435.716 159.983h-134.646c-2.762 0-5-2.239-5-5s2.238-5 5-5h134.646c2.762 0 5 2.239 5 5s-2.239 5-5 5z" fill="#fff"/></g></g></g></g><g><circle cx="449.04" cy="71.654" fill="#ffa052" r="43.28"/><path d="m437.181 77.461c-2.936 2.998-4.754 7.095-4.754 11.613 0 2.761 2.239 5 5 5s5-2.239 5-5c0-3.646 2.967-6.613 6.613-6.613s6.613 2.966 6.613 6.613c0 2.761 2.239 5 5 5s5-2.239 5-5c0-4.518-1.818-8.615-4.754-11.613 2.936-2.998 4.754-7.095 4.754-11.613 0-9.161-7.453-16.613-16.613-16.613s-16.613 7.453-16.613 16.613c-.001 4.518 1.817 8.615 4.754 11.613zm18.472-11.613c0 3.646-2.967 6.613-6.613 6.613s-6.613-2.967-6.613-6.613 2.967-6.613 6.613-6.613 6.613 2.966 6.613 6.613z" fill="#fff"/><path d="m497.319 71.654c0-26.622-21.658-48.28-48.28-48.28-22.905 0-42.121 16.038-47.045 37.47h-120.153c-8.271 0-15 6.729-15 15v38.265h-18.723c-2.627-4.358-7.393-7.289-12.842-7.289h-128.378c-7.612-16.68-24.437-28.308-43.938-28.308-26.622 0-48.28 21.658-48.28 48.28 0 18.855 10.87 35.208 26.667 43.153v96.253c0 6.662 4.368 12.316 10.388 14.267v63.588c0 11.028 8.972 20 20 20h106.481v6.179c0 8.271 6.729 15 15 15h15.884v46h-34.353c-8.379 0-15.196 6.817-15.196 15.196s6.817 15.196 15.196 15.196h156.065c8.379 0 15.197-6.817 15.197-15.196s-6.817-15.196-15.197-15.196h-34.353v-46h15.883c8.271 0 15-6.729 15-15v-6.179h106.481c11.028 0 20-8.972 20-20v-148.515h1.277c8.271 0 15-6.729 15-15v-65.448c16.098-7.838 27.219-24.361 27.219-43.436zm-472.638 55.138c0-21.107 17.172-38.28 38.28-38.28s38.28 17.172 38.28 38.28-17.172 38.28-38.28 38.28-38.28-17.172-38.28-38.28zm26.666 46.859c3.722.923 7.61 1.421 11.613 1.421 26.622 0 48.28-21.658 48.28-48.28 0-3.418-.363-6.753-1.041-9.972h125.077c2.757 0 5 2.243 5 5v144.378c0 2.757-2.243 5-5 5h-46.743c-2.141 0-4.044 1.363-4.734 3.39l-8.413 24.741c-.781 2.298-2.844 2.477-3.458 2.477-.613 0-2.676-.179-3.458-2.477l-8.413-24.741c-.689-2.027-2.593-3.39-4.734-3.39h-98.976c-2.757 0-5-2.243-5-5zm240.112 267.582h39.353c2.866 0 5.197 2.331 5.197 5.196s-2.331 5.196-5.197 5.196h-156.065c-2.865 0-5.196-2.331-5.196-5.196s2.331-5.196 5.196-5.196h86.112c2.761 0 5-2.239 5-5s-2.239-5-5-5h-41.759v-46h67.36v51c-.001 2.761 2.238 5 4.999 5zm25.883-71c0 2.757-2.243 5-5 5h-119.125c-2.757 0-5-2.243-5-5v-6.179h129.125zm142.759-189.695c0 2.757-2.243 5-5 5h-103.435c-2.141 0-4.044 1.363-4.734 3.39l-8.413 24.741c-.781 2.298-2.844 2.477-3.458 2.477s-2.677-.179-3.458-2.477l-8.413-24.741c-.689-2.027-2.593-3.39-4.734-3.39h-36.615c-2.757 0-5-2.243-5-5v-30.831c0-2.761-2.239-5-5-5s-5 2.239-5 5v30.831c0 8.271 6.729 15 15 15h33.034l7.26 21.351c1.913 5.624 6.986 9.257 12.926 9.257 5.939 0 11.013-3.633 12.925-9.257l7.26-21.351h88.577v148.516c0 5.514-4.486 10-10 10h-362.088c-5.514 0-10-4.486-10-10v-62.855h90.008l7.26 21.351c1.913 5.624 6.986 9.257 12.925 9.257 5.94 0 11.013-3.633 12.926-9.257l7.26-21.351h43.162c8.271 0 15-6.729 15-15v-142.09h21.563c1.894 0 3.626-1.073 4.474-2.767.347-.694.528-1.459.528-2.236v-43.261c0-2.757 2.243-5 5-5h118.939c-.005.27-.021.538-.021.81 0 26.622 21.658 48.28 48.28 48.28 3.807 0 7.507-.457 11.062-1.294zm-11.061-70.604c-21.107 0-38.28-17.172-38.28-38.28s17.172-38.28 38.28-38.28 38.28 17.172 38.28 38.28-17.173 38.28-38.28 38.28z" fill="#590bb2"/></g></g></g><g><g><g><path d="m370.821 270.966h49.52c2.762 0 5-2.239 5-5s-2.238-5-5-5h-49.52c-2.762 0-5 2.239-5 5s2.238 5 5 5z" fill="#ffa052"/></g><g><path d="m343.821 288.469h76.52c2.762 0 5-2.239 5-5s-2.238-5-5-5h-76.52c-2.762 0-5 2.239-5 5s2.238 5 5 5z" fill="#ffa052"/></g></g><g fill="#ffa052"><circle cx="418.793" cy="247.916" r="5"/><circle cx="402.543" cy="247.916" r="5"/></g></g></g></g></svg>