<svg id="Capa_1" enable-background="new 0 0 512 512" height="512" viewBox="0 0 512 512" width="512" xmlns="http://www.w3.org/2000/svg" xmlns:xlink="http://www.w3.org/1999/xlink"><linearGradient id="SVGID_1_" gradientUnits="userSpaceOnUse" x1="301.908" x2="193.897" y1="-54.974" y2="650.097"><stop offset="0" stop-color="#ffa052"/><stop offset="1" stop-color="#fff" stop-opacity="0"/></linearGradient><g><path d="m338.92 70.183c-1.369 0-2.734.012-4.096.037-33.932.616-66.631-11.72-93.007-33.075-23.389-18.936-53.236-30.21-85.724-29.998-74.135.484-135.234 63.074-134.007 137.2.33 19.96 4.996 38.864 13.096 55.813 13.801 28.879 10.825 63.235-8.352 88.861-7.92 10.584-14.402 22.515-19.061 35.605-24.826 69.757 11.848 147.296 81.551 172.272 70.982 25.434 148.823-12.162 173.19-83.256 1.805-5.266 3.265-10.567 4.393-15.878 7.162-33.729 36.586-57.876 71.067-57.732.317.001.634.002.951.002 95.59 0 173.08-60.408 173.08-134.925s-77.492-134.926-173.081-134.926z" fill="url(#SVGID_1_)"/><g><path d="m353.5 88.369h-3v-3c0-2.762-2.239-5-5-5s-5 2.238-5 5v3h-3c-2.761 0-5 2.238-5 5s2.239 5 5 5h3v3c0 2.762 2.239 5 5 5s5-2.238 5-5v-3h3c2.761 0 5-2.238 5-5s-2.239-5-5-5z" fill="#c182f9"/><path d="m62.175 104.371h-3v-3c0-2.762-2.239-5-5-5s-5 2.238-5 5v3h-3c-2.761 0-5 2.238-5 5s2.239 5 5 5h3v3c0 2.762 2.239 5 5 5s5-2.238 5-5v-3h3c2.761 0 5-2.238 5-5s-2.239-5-5-5z" fill="#ffa052"/><g><path d="m41.066 387v87.681c0 5.523 4.477 10 10 10h409.867c5.523 0 10-4.477 10-10v-87.681z" fill="#590bb2" opacity=".1"/><path d="m374.22 154.909-112.112-86.508c-3.599-2.777-8.619-2.777-12.218 0l-112.112 86.507h236.442z" fill="#c182f9"/><g><g><path d="m452.04 159.113v203.94c0 8.29-6.71 15-15 15h-362.08c-8.29 0-15-6.71-15-15v-203.94c0-8.29 6.71-15 15-15h362.08c8.29 0 15 6.709 15 15z" fill="#c182f9"/><path d="m419 144.113v210.18c0 5.52-4.48 10-10 10h-143c-2.76 0-5.26-1.12-7.07-2.93s-2.93-4.31-2.93-7.07c0 5.52-4.48 10-10 10h-143c-5.52 0-10-4.48-10-10v-210.18z" fill="#b557ff"/><g><path d="m452.042 331.659h-392.086v-172.549c0-8.284 6.716-15 15-15h362.086c8.284 0 15 6.716 15 15z" fill="#fdd250"/></g></g><g><path d="m256 147.322v189.42c0 5.52-4.48 10-10 10h-143c-5.52 0-10-4.48-10-10v-204.42c0-5.52 4.48-10 10-10h128c13.81 0 25 11.19 25 25z" fill="#fff"/><g><path d="m206.25 221.582c-3.79 2.82-7.4 4.23-10.83 4.23-3.09 0-5.6-1.45-7.53-4.36-1.94-2.82-2.91-7.22-2.91-13.21v-67.61c0-6.87-2.18-12.98-6.54-18.31h-26.8c1.13.73 2.2 1.55 3.23 2.46 5.37 4.75 8.06 10.48 8.06 17.17v18.75c-25.1 2.82-45.19 8.48-60.29 16.97-3.66 2.06-6.87 4.25-9.64 6.56v48.68c6.4 3.98 15 5.97 25.82 5.97 8.89 0 16.51-1.47 22.84-4.42 6.34-2.95 13.69-8.83 22.06-17.63 3.08 8.19 6.67 13.91 10.76 17.17 4.1 3.25 9.14 4.88 15.13 4.88 7.83 0 14.96-3.3 21.39-9.9zm-43.32-34.469c0 11.89-3.81 21.77-11.43 29.65-7.61 7.88-16.62 11.82-27 11.82-5.82 0-10.53-1.91-14.14-5.74s-5.41-9.14-5.41-15.92c0-9.68 3.48-17.17 10.43-22.45 9.33-6.95 25.18-11.97 47.55-15.05zm-51.11-32.421c2.55-2.51 3.83-5.74 3.83-9.71 0-2.72-1.28-5.85-3.83-9.37-2.12-2.82-3.17-4.89-3.17-6.21 0-2.29 1.98-4.62 5.94-7 .05-.03.1-.06.15-.08h-11.74c-5.52 0-10 4.48-10 10v23.54c2.51 1.73 5.44 2.59 8.78 2.59 4.14 0 7.48-1.25 10.04-3.76z" fill="#efebff"/></g><path d="m266 346.743h142.999c5.523 0 10-4.477 10-10v-204.419c0-5.523-4.477-10-10-10h-127.999c-13.807 0-25 11.193-25 25v189.418c0 5.524 4.477 10.001 10 10.001z" fill="#fff"/></g><g><g><g><g><path d="m327.779 161.64h-43.52c-2.762 0-5-2.239-5-5s2.238-5 5-5h43.52c2.762 0 5 2.239 5 5s-2.238 5-5 5z" fill="#ffa052"/></g><g><path d="m327.779 181.143h-43.52c-2.762 0-5-2.239-5-5s2.238-5 5-5h43.52c2.762 0 5 2.239 5 5s-2.238 5-5 5z" fill="#ffa052"/></g><g><path d="m327.779 200.645h-43.52c-2.762 0-5-2.239-5-5s2.238-5 5-5h43.52c2.762 0 5 2.239 5 5s-2.238 5-5 5z" fill="#ffa052"/></g><g><path d="m327.779 220.148h-43.52c-2.762 0-5-2.239-5-5s2.238-5 5-5h43.52c2.762 0 5 2.239 5 5s-2.238 5-5 5z" fill="#ffa052"/></g><g><path d="m327.779 239.651h-43.52c-2.762 0-5-2.239-5-5s2.238-5 5-5h43.52c2.762 0 5 2.239 5 5s-2.238 5-5 5z" fill="#ffa052"/></g></g><g><g><path d="m390.74 161.64h-43.52c-2.762 0-5-2.239-5-5s2.238-5 5-5h43.52c2.762 0 5 2.239 5 5s-2.239 5-5 5z" fill="#ffa052"/></g><g><path d="m390.74 181.143h-43.52c-2.762 0-5-2.239-5-5s2.238-5 5-5h43.52c2.762 0 5 2.239 5 5s-2.239 5-5 5z" fill="#ffa052"/></g><g><path d="m390.74 200.645h-43.52c-2.762 0-5-2.239-5-5s2.238-5 5-5h43.52c2.762 0 5 2.239 5 5s-2.239 5-5 5z" fill="#ffa052"/></g><g><path d="m390.74 220.148h-43.52c-2.762 0-5-2.239-5-5s2.238-5 5-5h43.52c2.762 0 5 2.239 5 5s-2.239 5-5 5z" fill="#ffa052"/></g><g><path d="m390.74 239.651h-43.52c-2.762 0-5-2.239-5-5s2.238-5 5-5h43.52c2.762 0 5 2.239 5 5s-2.239 5-5 5z" fill="#ffa052"/></g></g></g><g><g><g><path d="m327.779 259.153h-43.52c-2.762 0-5-2.239-5-5s2.238-5 5-5h43.52c2.762 0 5 2.239 5 5 0 2.762-2.238 5-5 5z" fill="#fdd250"/></g><g><path d="m327.779 278.656h-43.52c-2.762 0-5-2.239-5-5s2.238-5 5-5h43.52c2.762 0 5 2.239 5 5s-2.238 5-5 5z" fill="#fdd250"/></g><g><path d="m327.779 298.159h-43.52c-2.762 0-5-2.239-5-5s2.238-5 5-5h43.52c2.762 0 5 2.239 5 5s-2.238 5-5 5z" fill="#fdd250"/></g><g><path d="m327.779 317.661h-43.52c-2.762 0-5-2.239-5-5s2.238-5 5-5h43.52c2.762 0 5 2.239 5 5s-2.238 5-5 5z" fill="#fdd250"/></g></g><g><g><path d="m390.74 259.153h-43.52c-2.762 0-5-2.239-5-5s2.238-5 5-5h43.52c2.762 0 5 2.239 5 5 0 2.762-2.239 5-5 5z" fill="#fdd250"/></g><g><path d="m390.74 278.656h-43.52c-2.762 0-5-2.239-5-5s2.238-5 5-5h43.52c2.762 0 5 2.239 5 5s-2.239 5-5 5z" fill="#fdd250"/></g><g><path d="m390.74 298.159h-43.52c-2.762 0-5-2.239-5-5s2.238-5 5-5h43.52c2.762 0 5 2.239 5 5s-2.239 5-5 5z" fill="#fdd250"/></g><g><path d="m390.74 317.661h-43.52c-2.762 0-5-2.239-5-5s2.238-5 5-5h43.52c2.762 0 5 2.239 5 5s-2.239 5-5 5z" fill="#fdd250"/></g></g></g><g><g><g><path d="m165.44 278.656h-43.52c-2.762 0-5-2.239-5-5s2.238-5 5-5h43.52c2.762 0 5 2.239 5 5s-2.238 5-5 5z" fill="#fdd250"/></g><g><path d="m165.44 298.159h-43.52c-2.762 0-5-2.239-5-5s2.238-5 5-5h43.52c2.762 0 5 2.239 5 5s-2.238 5-5 5z" fill="#fdd250"/></g><g><path d="m165.44 317.661h-43.52c-2.762 0-5-2.239-5-5s2.238-5 5-5h43.52c2.762 0 5 2.239 5 5s-2.238 5-5 5z" fill="#fdd250"/></g></g><g><g><path d="m228.401 278.656h-43.52c-2.762 0-5-2.239-5-5s2.238-5 5-5h43.52c2.762 0 5 2.239 5 5s-2.238 5-5 5z" fill="#fdd250"/></g><g><path d="m228.401 298.159h-43.52c-2.762 0-5-2.239-5-5s2.238-5 5-5h43.52c2.762 0 5 2.239 5 5s-2.238 5-5 5z" fill="#fdd250"/></g><g><path d="m228.401 317.661h-43.52c-2.762 0-5-2.239-5-5s2.238-5 5-5h43.52c2.762 0 5 2.239 5 5s-2.238 5-5 5z" fill="#fdd250"/></g></g></g></g><g><g><g><path d="m170.161 231.925h-49.52c-2.762 0-5-2.239-5-5s2.238-5 5-5h49.52c2.762 0 5 2.239 5 5s-2.239 5-5 5z" fill="#c182f9"/></g><g><path d="m197.161 249.427h-76.52c-2.762 0-5-2.239-5-5s2.238-5 5-5h76.52c2.762 0 5 2.239 5 5s-2.239 5-5 5z" fill="#c182f9"/></g></g><g fill="#c182f9"><circle cx="122.188" cy="208.874" r="5"/><circle cx="138.438" cy="208.874" r="5"/></g></g><path d="m232.271 162.336c0-9.161-7.453-16.613-16.613-16.613s-16.613 7.453-16.613 16.613c0 4.518 1.818 8.615 4.755 11.613-2.936 2.998-4.755 7.095-4.755 11.613 0 2.761 2.238 5 5 5s5-2.239 5-5c0-3.646 2.967-6.613 6.613-6.613s6.613 2.967 6.613 6.613c0 2.761 2.238 5 5 5s5-2.239 5-5c0-4.518-1.818-8.615-4.755-11.613 2.936-2.998 4.755-7.095 4.755-11.613zm-16.614-6.613c3.646 0 6.613 2.967 6.613 6.613s-2.967 6.613-6.613 6.613-6.613-2.967-6.613-6.613 2.967-6.613 6.613-6.613z" fill="#ffa052"/></g><path d="m460.934 457.681h-409.868c-5.523 0-10-4.477-10-10v-225.07c0-3.726 3.929-6.143 7.255-4.463l203.169 102.656c2.836 1.433 6.184 1.433 9.019 0l203.169-102.655c3.326-1.68 7.255.737 7.255 4.463v225.07c.001 5.522-4.477 9.999-9.999 9.999z" fill="#c182f9"/><path d="m471.173 214.094c-2.981-1.832-6.626-1.985-9.749-.407l-4.38 2.213v-56.79c0-11.028-8.972-20-20-20h-13.045v-6.786c0-8.271-6.729-15-15-15h-21.365c-2.761 0-5 2.238-5 5s2.239 5 5 5h21.365c2.757 0 5 2.243 5 5v105.324l-152.999 77.306v-167.63c0-11.028 8.972-20 20-20h76.033c2.761 0 5-2.238 5-5s-2.239-5-5-5h-23.337l-68.533-52.881c-5.396-4.164-12.932-4.163-18.327-.001l-68.534 52.882h-75.302c-8.271 0-15 6.729-15 15v6.786h-13.044c-11.028 0-20 8.972-20 20v56.789l-4.379-2.213c-3.124-1.578-6.768-1.425-9.75.407-2.981 1.834-4.761 5.018-4.761 8.518v225.07c0 8.271 6.729 15 15 15h409.867c8.271 0 15-6.729 15-15v-225.07c.001-3.5-1.779-6.683-4.76-8.517zm-47.174-64.984h13.045c5.514 0 10 4.486 10 10v61.842l-23.045 11.644zm-171.054-76.751c1.798-1.387 4.311-1.388 6.108.001l58.273 44.964h-36.326c-10.425 0-19.622 5.348-25 13.443-5.379-8.094-14.575-13.443-25-13.443h-36.327zm-187.989 86.751c0-5.514 4.486-10 10-10h13.044v83.485l-23.044-11.643zm400.978 288.572c0 2.757-2.243 5-5 5h-409.868c-2.757 0-5-2.243-5-5v-225.07l102.418 51.748c2.465 1.244 5.473.256 6.718-2.208 1.245-2.465.257-5.473-2.208-6.718l-54.994-27.786v-105.324c0-2.757 2.243-5 5-5h127.999c11.028 0 20 8.972 20 20v167.629l-70.633-35.689c-2.465-1.245-5.472-.256-6.718 2.208-1.245 2.465-.257 5.473 2.208 6.718l73.38 37.076c4.235 2.141 9.292 2.139 13.529 0l203.169-102.655z" fill="#590bb2"/><circle cx="111.122" cy="392.111" fill="#ffe783" r="32.316"/><path d="m318.924 424.427h-150.994c-2.761 0-5-2.239-5-5v-17.051c0-2.761 2.239-5 5-5h150.994c2.761 0 5 2.239 5 5v17.051c0 2.762-2.239 5-5 5z" fill="#fff"/><g><path d="m244.449 383.055h-76.52c-2.762 0-5-2.239-5-5s2.238-5 5-5h76.52c2.762 0 5 2.239 5 5s-2.238 5-5 5z" fill="#ffe783"/></g></g><path d="m325.22 59c-1.28 0-2.559-.488-3.536-1.465l-4.464-4.464-4.464 4.464c-1.953 1.953-5.118 1.953-7.071 0-1.953-1.952-1.953-5.118 0-7.07l8-8c1.953-1.953 5.118-1.953 7.071 0l8 8c1.953 1.952 1.953 5.118 0 7.07-.977.977-2.256 1.465-3.536 1.465z" fill="#fdd250"/><g fill="#c182f9"><path d="m91.806 91.369c-1.28 0-2.559-.488-3.536-1.465l-4.464-4.464-4.464 4.464c-1.953 1.953-5.118 1.953-7.071 0-1.953-1.952-1.953-5.118 0-7.07l8-8c1.953-1.953 5.118-1.953 7.071 0l8 8c1.953 1.952 1.953 5.118 0 7.07-.977.977-2.256 1.465-3.536 1.465z"/><path d="m434.04 60.56c-1.28 0-2.559-.488-3.536-1.465l-4.464-4.464-4.464 4.464c-1.953 1.953-5.118 1.953-7.071 0-1.953-1.952-1.953-5.118 0-7.07l8-8c1.953-1.953 5.118-1.953 7.071 0l8 8c1.953 1.952 1.953 5.118 0 7.07-.977.976-2.256 1.465-3.536 1.465z"/></g></g></g></svg>